<?xml version="1.0" encoding="UTF-8"?>
<svg id="Layer_1" data-name="Layer 1" xmlns="http://www.w3.org/2000/svg" viewBox="0 0 602.22 682.26">
  <path d="M511.35,497.51c-70.78-39.86-130.33-92.23-174.17-160.9-56.08-87.84-73.48-177.07-111.96-270.54-17.35-42.15-36.79-85.86-89.36-56.48C70.06,46.37,18.43,146.54,5.38,218.65c-45.62,252.22,207.36,404.43,430.32,323.53,26.82-9.73,55.89-23.91,75.64-44.68Z"/>
  <path d="M511.35,497.51c-19.76,20.76-48.83,34.94-75.64,44.68C212.74,623.09-40.23,470.88,5.38,218.65,18.43,146.54,70.06,46.37,135.86,9.58c52.57-29.38,72.01,14.33,89.36,56.48,38.48,93.47,55.88,182.71,111.96,270.54,43.84,68.67,103.39,121.04,174.17,160.9Z"/>
</svg>